<svg xmlns="http://www.w3.org/2000/svg" xmlns:xlink="http://www.w3.org/1999/xlink" version="1.1" x="0px" y="0px" viewBox="0 0 100 125" enable-background="new 0 0 100 100" xml:space="preserve"><path fill="#000000" d="M20.094,56.403c-3.453-3.453-9.052-3.456-12.505-0.002c-3.453,3.453-3.451,9.052,0.002,12.505l6.252,7.238  l6.246-7.229c0.003-0.003,0.005-0.005,0.008-0.007C23.55,65.455,23.548,59.856,20.094,56.403z M13.843,66.633  c-2.199,0-3.981-1.781-3.981-3.979c0-2.195,1.782-3.979,3.981-3.979s3.981,1.783,3.981,3.979  C17.824,64.852,16.042,66.633,13.843,66.633z"/><path fill="#000000" d="M92.419,20.841c-3.453-3.453-9.053-3.456-12.506-0.002c-3.453,3.453-3.451,9.052,0.002,12.505l6.252,7.238  l6.246-7.229c0.004-0.003,0.006-0.005,0.008-0.007C95.874,29.893,95.872,24.294,92.419,20.841z M86.167,31.07  c-2.199,0-3.98-1.781-3.98-3.979c0-2.195,1.781-3.979,3.98-3.979s3.982,1.783,3.982,3.979C90.149,29.289,88.366,31.07,86.167,31.07z  "/><g><path fill="#000000" d="M13.831,86.146c-1.296,0-2.491-0.847-2.876-2.152c-0.469-1.59,0.44-3.258,2.029-3.727l42.32-12.475   l-13.491-5.303c-1.2-0.472-1.964-1.656-1.899-2.944c0.065-1.287,0.946-2.389,2.187-2.736l43.256-12.115   c1.592-0.443,3.25,0.483,3.697,2.08c0.447,1.595-0.484,3.25-2.078,3.698l-34.649,9.704l13.31,5.23   c1.191,0.469,1.955,1.644,1.898,2.924s-0.92,2.384-2.148,2.746L14.681,86.022C14.398,86.105,14.112,86.146,13.831,86.146z"/></g><text x="0" y="115" fill="#000000" font-size="5px" font-weight="bold" font-family="'Helvetica Neue', Helvetica, Arial-Unicode, Arial, Sans-serif">Created by Dmitry Mirolyubov</text><text x="0" y="120" fill="#000000" font-size="5px" font-weight="bold" font-family="'Helvetica Neue', Helvetica, Arial-Unicode, Arial, Sans-serif">from the Noun Project</text></svg>